<svg viewBox="0 0 64 64" xmlns="http://www.w3.org/2000/svg" role="img" aria-label="Pistachio">
  <rect width="64" height="64" rx="15" fill="#10231A"/>
  <path d="M32 11c10.4 0 17.5 8.3 17.5 19.6 0 12.6-8.2 22.4-17.5 22.4S14.5 43.2 14.5 30.6C14.5 19.3 21.6 11 32 11Z" fill="#C9E58B"/>
  <path d="M32 18.5c6.8 0 11.6 5.8 11.6 13.2S38.8 45.4 32 45.4 20.4 39.1 20.4 31.7 25.2 18.5 32 18.5Z" fill="#8FBF3A"/>
  <path d="M32 18.5c-3.2 5-3.2 9.4 0 13.4s3.2 8.4 0 13.5" stroke="#5E8A2A" stroke-width="2.4" fill="none" stroke-linecap="round"/>
  <circle cx="26.5" cy="26" r="3" fill="#EAF6C8" opacity="0.7"/>
</svg>
